<svg xmlns="http://www.w3.org/2000/svg" viewBox="0 0 512 512">
  <defs>
    <linearGradient id="bg" x1="76" y1="72" x2="432" y2="438" gradientUnits="userSpaceOnUse">
      <stop stop-color="#156f72"/>
      <stop offset=".35" stop-color="#47a276"/>
      <stop offset=".66" stop-color="#f4c867"/>
      <stop offset="1" stop-color="#ef7b63"/>
    </linearGradient>
    <linearGradient id="shine" x1="104" y1="94" x2="316" y2="290" gradientUnits="userSpaceOnUse">
      <stop stop-color="#fff" stop-opacity=".55"/>
      <stop offset="1" stop-color="#fff" stop-opacity="0"/>
    </linearGradient>
  </defs>
  <rect width="512" height="512" rx="112" fill="url(#bg)"/>
  <path d="M105 140c86 32 145 26 205-17 41-30 88-28 142 5v162c-64-18-119-5-166 38-55 51-120 59-194 24Z" fill="#fff" opacity=".18"/>
  <rect x="152" y="150" width="206" height="206" rx="48" fill="#fbfcf8"/>
  <path d="M204 276h112" stroke="#156f72" stroke-width="28" stroke-linecap="round"/>
  <path d="M255 204v112" stroke="#156f72" stroke-width="28" stroke-linecap="round"/>
  <path d="M112 112h288v96c-90-30-173-13-248 52-28 24-55 38-80 42V152c0-22 18-40 40-40Z" fill="url(#shine)"/>
</svg>
